HIERARCHY
ROOT base
{
	OFFSET 0.0 0.0 0.0
	CHANNELS 6 Xposition Yposition Zposition Zrotation Yrotation Xrotation
	JOINT root
	{
		OFFSET 0 0 0
		CHANNELS 6 Xposition Yposition Zposition Zrotation Yrotation Xrotation
		JOINT chest
		{
			OFFSET 0 4.72302 0
			CHANNELS 3 Zrotation Yrotation Xrotation
			JOINT neck
			{
				OFFSET 0 4.47788 0
				CHANNELS 3 Zrotation Yrotation Xrotation
				End Site
				{
					OFFSET 0.0 0.0 0.0
				}
			}
			JOINT right_shoulder
			{
				OFFSET -0.481 4.87 3.6622
				CHANNELS 3 Zrotation Yrotation Xrotation
				JOINT right_elbow
				{
					OFFSET 0 -5.49576 0
					CHANNELS 3 Zrotation Yrotation Xrotation
					JOINT right_wrist
					{
						OFFSET 0 -5.17894 0
						CHANNELS 3 Zrotation Yrotation Xrotation
						End Site
						{
							OFFSET 0.0 0.0 0.0
						}
					}
				}
			}
			JOINT left_shoulder
			{
				OFFSET -0.481 4.87 -3.6622
				CHANNELS 3 Zrotation Yrotation Xrotation
				JOINT left_elbow
				{
					OFFSET 0 -5.49576 0
					CHANNELS 3 Zrotation Yrotation Xrotation
					JOINT left_wrist
					{
						OFFSET 0 -5.17894 0
						CHANNELS 3 Zrotation Yrotation Xrotation
						End Site
						{
							OFFSET 0.0 0.0 0.0
						}
					}
				}
			}
		}
		JOINT right_hip
		{
			OFFSET 0 0 1.69774
			CHANNELS 3 Zrotation Yrotation Xrotation
			JOINT right_knee
			{
				OFFSET 0 -8.43092 0
				CHANNELS 3 Zrotation Yrotation Xrotation
				JOINT right_ankle
				{
					OFFSET 0 -8.1974 0
					CHANNELS 3 Zrotation Yrotation Xrotation
					End Site
					{
						OFFSET 0.0 0.0 0.0
					}
				}
			}
		}
		JOINT left_hip
		{
			OFFSET 0 0 -1.69774
			CHANNELS 3 Zrotation Yrotation Xrotation
			JOINT left_knee
			{
				OFFSET 0 -8.43092 0
				CHANNELS 3 Zrotation Yrotation Xrotation
				JOINT left_ankle
				{
					OFFSET 0 -8.1974 0
					CHANNELS 3 Zrotation Yrotation Xrotation
					End Site
					{
						OFFSET 0.0 0.0 0.0
					}
				}
			}
		}
	}
	JOINT red_arrow
	{
		OFFSET 0 0 0
		CHANNELS 3 Zrotation Yrotation Xrotation
		End Site
		{
			OFFSET 0.0 0.0 0.0
		}
	}
	JOINT blue_arrow
	{
		OFFSET 0 0 0
		CHANNELS 3 Zrotation Yrotation Xrotation
		End Site
		{
			OFFSET 0.0 0.0 0.0
		}
	}
}
MOTION
Frames: 18
Frame Time: 0.0333333333333333
0 18.08466 0 0 0 0 0 0 0 0 -90 0 0 0 0 0 0 0 0 0 -90 0 0 0 0 0 0 0 0 90 0 0 0 0 0 0 0 0 0 0 0 0 0 0 0 0 0 0 0 0 0 0 0 0 0 0 0 0 0 0
-0.339403738081455 0 -0.00537472255527974 0 -0.634922165382002 0 0 17.936171233654 0 -4.11776086293947 1.11816375520202E-16 2.90417243499829 -0.204421058438436 0.557110543608633 0.929276342628985 -15.4842143677888 -4.80013517978836 -0.742481820153976 11.4604805935988 -12.0611206946571 -11.7652537586592 10.289687668587 0 0 0 0 0 10.6400159927041 -6.3358104007757 12.0196597844725 5.05542982786888 0 0 0 0 0 0.46754146276878 -0.271417215777324 -2.6983443539062 3.81854028248546E-05 0 0 0.847780723119637 -8.04924988579551 2.67100859239252 2.54152258132483 -0.608259563181215 -1.57969346121856 5.85951799713182E-05 0 0 -7.71171896482044 9.36512005238909 -2.83053776894968 0 0 0 0 0 0
-0.665077312290668 0 -0.0189284153282642 0 -0.642537911772651 0 0 17.9077015280724 0 -5.05334213419831 -0.144136756131348 2.54931985467915 -5.23709412604929 0.274027029577654 2.16509718715698 -15.9278198005991 -6.67473854428578 -1.73509452847427 13.5702393243739 -12.6744109458536 -22.7328061543713 2.50368246645293 0 0 0 0 0 6.61255982399342 -7.75391874438522 19.0008841571116 -0.0163767675848074 0 0 0 0 0 4.48049824911077 -1.23494795104646 -2.28515144092145 0.000103718281838862 0 0 -3.88761509252628 -5.28519423497666 0.231604152992554 4.51069452666143 -0.15003769173321 -1.1299384708136 0.000260230848333043 0 0 -7.69592424301284 8.28661837984149 -2.59980791920132 0 0 0 0 0 0
-1.09217562973499 0 -0.0459174830466509 0 -0.539507625715617 0 0 17.7633992671967 0 -7.13429562157826 1.94243110259395 2.33493161573473 -11.068187908501 -0.0675068852408168 3.98706119100648 -16.2607469299135 -8.85955483740523 -1.76107426428004 13.4447631464873 -18.3153966669293 -36.0925465734724 -0.000126833888044366 0 0 0 0 0 -0.594230553488718 -7.46881882410553 29.3553048832809 -6.53488102894823E-06 0 0 0 0 0 7.79518012277953 -2.26649465024787 -2.46804524424346 0.000237669316940599 0 0 -1.84633106161848 -5.75734228542981 0.0157699454948588 8.06646554370221 0.507458951422354 -1.29015567253585 0.00180626987293099 0 0 -5.84339650803763 5.69776176029102 -1.75013118921035 0 0 0 0 0 0
-1.65974725186825 0 -0.0381923845037818 0 -0.330833728925661 0 0 17.6772385597229 0 -10.5035607434564 3.89857472443798 1.39520720379589 -16.9539818850205 0.340070338962572 6.8297244454591 -16.3111917849155 -10.5313268280595 -1.44136626754923 13.7858025829281 -26.3308976158918 -49.3146304039626 -0.158628315348343 0 0 0 0 0 -8.27671936891468 -3.99295211903186 38.5800748382612 -8.34199032893385E-05 0 0 0 0 0 12.8286449031142 -3.91950948875758 -2.10853367720835 0.0150543605856763 0 0 -2.20287318894703 -6.02385512934121 -0.104153769385688 13.4904095276663 1.5563688510652 -0.951490448621825 4.8333087417363E-05 0 0 -6.08231487644919 2.656719226488 -1.19063366076547 0 0 0 0 0 0
-2.26914045810699 0 -0.0599438755773008 0 -0.00927100879313286 0 0 17.657698559761 0 -13.6863415265017 5.93746757800562 1.03999994894772 -22.8484724477537 0.124391137482371 8.9774083514638 -16.6441489838601 -10.2182657005035 -0.481576883164434 16.7829957609916 -34.6206247206268 -61.0113546431013 -1.86113773349288E-05 0 0 0 0 0 -14.8552338316887 2.63128151963262 45.3901126630866 -2.0513857516082E-05 0 0 0 0 0 18.0319832778166 -6.37972585981996 -2.81104021300987 -0.0711703510380147 0 0 -4.02938524550178 -5.73339522352845 -0.075661699655829 19.0118441173501 2.41521343484944 -1.66398076375744 1.40539178869826E-05 0 0 -9.34090459605783 -0.361280447548614 -0.512019655102626 0 0 0 0 0 0
-3.01257122159004 0 -0.0687075022608042 0 0.360237512973245 0 0 17.6648315429688 0 -18.0254662436195 6.67927383329525 0.80587355738839 -28.0497800188114 0.266910182257311 9.92153762880505 -15.7732397605395 -8.50479345057266 1.04933133876689 19.5836301533737 -40.0554828412291 -65.8553999304364 -0.00100198028854311 0 0 0 0 0 -19.1125789490877 10.2394551228489 47.6467904192389 -1.2754919916867E-06 0 0 0 0 0 26.9522784308517 -7.94533586391721 -4.27671790020285 -4.13856785868799 0 0 -5.92764384180313 -2.4854003167666 0.240575344531496 26.0457635017673 4.82289224360628 -2.46601149237872 0.000117647236190409 0 0 -14.8552120243761 -3.40337103385116 0.685528875555218 0 0 0 0 0 0
-3.77027366757393 0 0.0145729098003358 0 0.759007970271999 0 0 17.61944886446 0 -22.9690081138147 6.98211329256934 -0.0491104642060018 -31.562879693155 0.186600827507239 9.92250150084659 -13.1327072870204 -6.22558719577908 2.24898787888349 17.7742580846469 -42.1501895794584 -60.3488315258774 -3.7105203302608E-08 0 0 0 0 0 -21.6511907007272 17.5190043998139 46.5118993068672 -0.0112938370207718 0 0 0 0 0 38.2331264055659 -7.75640394669845 -5.59132662092913 -12.2440250637284 0 0 -7.09045202773468 2.36823731016679 0.474215594599349 37.0173686589058 7.19075550486665 -2.04787301937307 -6.6644068184782 0 0 -17.1132649054642 -5.79926251303006 2.0511613560645 0 0 0 0 0 0
-4.32288588285446 0 0.165335774421692 0 1.14893966949883 0 0 17.3949024438858 0 -26.5513713845901 6.6347059873707 -1.15915923016096 -32.259068973262 0.141643332182509 8.97787020328788 -9.73337343543741 -4.44847600314799 2.33065782064025 11.939879673638 -40.3999559034932 -47.8277667346889 -5.32468064438451E-05 0 0 0 0 0 -22.2492959637548 23.4839789934352 44.535313347664 -1.73515450713829E-06 0 0 0 0 0 48.277126178224 -6.07816823852865 -5.82876600771235 -22.4434773956431 0 0 -5.68199077899974 6.09918623253902 0.540428586162892 48.1376111738925 8.32764563786352 -0.279969569498835 -17.4938715305666 0 0 -14.7424354404331 -6.9396260714593 2.71758932151106 0 0 0 0 0 0
-4.65135315656662 0 0.27725670710206 0 1.47475428177364 0 0 16.9428866386414 0 -28.1404271004386 5.46344905408962 -1.53211923615165 -30.0388309768813 0.221201761822726 7.4311075361533 -6.42879643562053 -3.1711014587689 1.49360801077659 6.94368133389496 -35.4996079928958 -35.2084214783043 -0.00460012823718696 0 0 0 0 0 -19.3517794328858 27.8473958524893 42.9773988921695 -4.60185907529972E-07 0 0 0 0 0 56.9279433310035 -4.30767122258227 -5.29516019805663 -34.1738440592562 0 0 -2.34396063698955 7.07908214703041 0.382458761637459 57.2849274114502 8.75808102205565 1.78505174143958 -29.7737030072452 0 0 -8.97962073917821 -6.66528634446921 2.63915701748505 0 0 0 0 0 0
-4.84568380117416 0 0.332615775614977 0 1.71675320875253 0 0 16.2859160065651 0 -28.5526409199825 4.04074559594306 -1.03020336376958 -25.5890475554033 0.510315608115808 5.81884306437066 -3.19325548484687 -2.19102839513082 0.633847088809482 1.11262783308754 -27.9751137171822 -23.0358275051182 -8.4950025298158E-07 0 0 0 0 0 -13.6874726257305 29.6446948941134 40.3704429356597 -0.000244256333825442 0 0 0 0 0 65.0606692902536 -2.85277678216519 -4.6784987340979 -46.912409823613 0 0 1.25744711462795 6.28849045683526 0.0305334198081959 65.2214335205508 8.73568049399559 3.57054346390741 -42.6377598372227 0 0 -2.61175799038912 -6.04832925649006 2.26586232629965 0 0 0 0 0 0
-4.95487563610077 0 0.357851222902536 0 1.87834963751499 0 0 15.4587866544724 0 -27.9155474223875 2.71363316580301 -0.21706908103455 -20.2375996041518 0.625438828546061 4.35571469191973 -0.451998583347297 -1.29364587876826 0.129257256924436 -2.82906739095736 -20.893988756886 -14.3724854799291 -6.40285096256656E-08 0 0 0 0 0 -7.01279346635541 29.1579649857149 35.8315399869295 -0.0159594106765025 0 0 0 0 0 71.5204251736504 -1.42190238117065 -3.97884011691797 -58.6839881411307 0 0 6.12408249939916 5.52078827944112 -0.0417726371190476 71.7237718088194 7.96217344887827 4.90952886609783 -55.1134213751419 0 0 3.80630122489846 -5.18710004811145 1.58615302479967 0 0 0 0 0 0
-4.96837133765221 0 0.378875524178147 0 1.97912068452759 0 0 14.5234987974167 0 -25.6288461605562 1.72639702993919 0.349314537804288 -14.8304455420477 0.454664057344208 3.04722167494781 1.16910319769376 -0.331022467296293 0.00320308803548712 -4.04572036969681 -15.2594242136412 -9.25030330138407 -0.000515580741932822 0 0 0 0 0 -0.831113066521426 25.8811581318492 29.9619299974638 -2.113879081278E-06 0 0 0 0 0 74.2195904868021 -0.493799205488662 -3.33361558613382 -67.9315451829511 0 0 15.4699470642441 5.38562348158013 0.409326383815744 75.3886737945234 6.75763026784164 5.77658128427485 -65.9981508553523 0 0 11.711512356718 -4.14721649609336 0.694715451551059 0 0 0 0 0 0
-4.98460646867752 0 0.39013587012887 0 2.02951778238345 0 0 13.6266733527184 0 -22.2925666032037 0.885988810525096 0.613063527701913 -9.29592591874579 0.132880342131244 1.77507372182203 2.26178504980623 0.739352697428133 -0.0162032939383846 0.901736365433586 -10.4727851684686 -7.47123520051067 -4.39515202766329E-06 0 0 0 0 0 6.63592135277889 21.3724739737635 25.1588859517071 -4.73211861594575E-06 0 0 0 0 0 75.5316161687269 -0.222930662228631 -2.94023935527514 -76.0831505611187 0 0 22.9241821944825 5.79738892005704 0.688100187180448 76.4605824314068 5.44849273201376 6.21178030269392 -74.1749391409897 0 0 20.2376839865606 -2.91238579398271 -0.131148147599017 0 0 0 0 0 0
-5.0653052508831 0 0.415577633399516 0 2.10362115037835 0 0 13.0700101137161 0 -17.4363873499171 1.34329263346005 0.558284877745047 -4.45212277094011 -0.187572920885114 0.658637137719013 2.15183274182161 1.47207498693797 0.207803762562264 13.5162014216337 -4.79408719122955 -7.43730664163942 2.10679447449206 0 0 0 0 0 18.4803738838926 14.0482165583814 21.8124147125835 2.49466576297486 0 0 0 0 0 74.4147916880825 -0.748691001889226 -3.71425584196617 -81.7024906252608 0 0 24.8111835112053 6.22201124594006 0.470995047376737 75.3918663209482 4.33618095847283 5.76738865705582 -79.6843541406296 0 0 21.8799878806331 -2.47469527743588 -0.334964447489292 0 0 0 0 0 0
-5.28083744347096 0 0.462085518613458 0 2.25329762725105 0 0 12.877524805069 0 -11.9618334337604 2.78219939428684 0.293752646192346 -0.439776809046924 -0.57851544066227 -0.257318666622128 2.18247160013944 2.064403533388 0.731322411910933 33.3916063513819 5.42317936219859 -5.10560676004045 8.09980949237046 0 0 0 0 0 34.6747445185248 -0.0553241395861093 15.4313872935298 9.68654098373988 0 0 0 0 0 70.7048159432939 -2.29541674483201 -5.50758049972144 -83.0950364234321 0 0 24.4973169437728 6.89166449526787 0.0478827481271547 71.7935788129408 3.57098811624043 4.77948631034068 -80.6898945902389 0 0 20.9498340995785 -2.90433936846747 -0.194582410804197 0 0 0 0 0 0
-5.42686932384968 0 0.505297050438821 0 2.45620220318846 0 0 13.0220497846603 0 -5.14227978094016 3.8397170844264 -0.246825485716077 0.0683252222760199 -0.72009415163807 -0.700753456066048 3.95236055501195 1.86740259037811 1.94477412689246 59.0001194296178 15.9209046743598 0.738996986909214 17.1264859003954 0 0 0 0 0 57.090534165591 -16.8489915612372 5.51210648546944 19.2893950746742 0 0 0 0 0 63.1725769740871 -3.66546131669504 -5.93481054979019 -81.0882517132015 0 0 23.2402552420422 6.56236616158721 -0.0402814172903076 64.6518150924089 2.74428932990255 4.42068322577937 -78.740872789819 0 0 19.3210666968154 -3.56599043337922 0.0167367226177878 0 0 0 0 0 0
-5.07901558727026 0 0.454276727512479 0 2.69957574450402 0 0 13.6720816373825 0 5.30843152496026 4.60435042361411 -0.337195494935937 -3.2259670332933 -0.662771436836948 -0.964451120199125 4.8209677261835 1.33484315270269 1.82883229245415 83.4018799132063 24.65367987723 2.4688193811798 30.5289238539627 0 0 0 0 0 81.0994976561424 -31.2138825772172 -3.07646782731872 38.5854086026541 0 0 0 0 0 47.2199308713686 -3.04015173025446 -4.29178695250462 -75.1994606863024 0 0 22.7856417604893 3.88766597491766 0.964889724166003 49.3313288704343 1.67091659674876 3.8468590983487 -73.369250026495 0 0 18.8320868692725 -3.41887199558318 -0.106778762149821 0 0 0 0 0 0
